<svg xmlns="http://www.w3.org/2000/svg" viewBox="0 0 1064 1019.61"><defs><style>.cls-1{fill:#4352a3;}.cls-2{fill:#19aa4a;}.cls-3,.cls-5{fill:#fff;}.cls-4{fill:#cebe49;}.cls-5{stroke:#cebe49;stroke-linecap:round;stroke-miterlimit:10;stroke-width:7px;}.cls-6{font-size:200px;font-family:TempusSansITC, Tempus Sans ITC;}</style></defs><title>Asset 3</title><g id="Layer_2" data-name="Layer 2"><g id="Layer_6" data-name="Layer 6"><path class="cls-1" d="M388.82,414.78S450.73,332,508.15,339.44c0,0,4.76,98.89-117.91,99.28,0,0,95.83,1.14,109.08-86.36C499.32,352.36,459.07,348.7,388.82,414.78Z"/><path class="cls-1" d="M253.82,477.61s65,6.5,110-23.5c0,0-70,16.5-79.5,11,27-45,72.19-37.18,72.19-37.18-65-99.5-17.88-136.32-17.88-136.32,37.54,12.17,42.19,119.5,42.19,119.5S407,297.93,338.63,257.7c0,0-89.06,66.61,9.19,165.41C347.82,423.11,272.32,414.11,253.82,477.61Z"/><path class="cls-1" d="M385.75,512.11c38.54-24.42,5.16-72.43,4.49-73.39.39.84,19.37,42.07-1.25,59.72,0,0-12.69-12.16-12.52-33.33C371.8,490.44,385.75,512.11,385.75,512.11Z"/></g><g id="Layer_5" data-name="Layer 5"><path class="cls-2" d="M681.5,1019.61c3.58-7.2,6.93-14.48,10.15-21.83s6.34-14.71,9.29-22.15c5.89-14.88,11.44-29.86,16.3-45.05,1.23-3.79,2.37-7.61,3.64-11.38l2-5.63c.67-1.87,1.34-3.75,2-5.64q3.76-11.32,7-22.82T737.72,862q2.68-11.61,4.79-23.32c5.56-31.21,7.84-63.09,4.67-94.46A239.79,239.79,0,0,0,738,698.07a226,226,0,0,0-8.15-22,220.1,220.1,0,0,0-10.65-20.9l-2.68-4.63,4.75-2.38,42-21,4-2,2.38,3.73c.71,1.11,1.23,2,1.79,3s1.06,1.94,1.59,2.91,1,1.95,1.5,2.92,1,2,1.43,2.94l1.38,3,1.29,3c.88,2,1.67,4,2.46,6a253.37,253.37,0,0,1,8.1,24.53,311.65,311.65,0,0,1,9.11,50.6,368.39,368.39,0,0,1,1.3,51.26,421.78,421.78,0,0,1-5.16,50.91c-.33,2.11-.61,4.22-1,6.32l-1.19,6.28-1.19,6.28c-.42,2.09-.75,4.2-1.26,6.27-1.93,8.29-3.65,16.65-6,24.84-1.11,4.11-2.16,8.24-3.32,12.33l-3.72,12.21L775,910.49c-.62,2-1.33,4-2,6.07s-1.33,4-2.07,6-1.52,4-2.29,6a673.66,673.66,0,0,1-45.14,91.06c13.77-30.87,26.22-62.23,36-94.31.59-2,1.18-4,1.81-6s1.34-4,2-5.94,1.44-3.93,2.08-5.92l1.84-6,3.66-12c1.14-4,2.17-8.08,3.26-12.11,2.28-8,4-16.24,5.86-24.38.5-2,.82-4.09,1.23-6.14l1.17-6.15,1.17-6.15c.37-2.05.64-4.12,1-6.18a411.82,411.82,0,0,0,5-49.75,358.43,358.43,0,0,0-1.26-49.87,301.69,301.69,0,0,0-8.8-48.93,243.46,243.46,0,0,0-7.76-23.51c-.76-1.91-1.5-3.83-2.34-5.71l-1.22-2.83-1.3-2.78c-.42-.93-.87-1.85-1.34-2.75s-.9-1.83-1.39-2.71-.94-1.79-1.45-2.64-1-1.77-1.45-2.44l6.41,1.72-42,21,2.07-7A230,230,0,0,1,739,672a235.88,235.88,0,0,1,8.55,23.09,245.49,245.49,0,0,1,6,23.84c1.63,8,2.73,16.14,3.59,24.26,3.28,32.55.91,65.32-4.77,97.23q-2.16,12-4.89,23.82t-6.06,23.53c-2.17,7.8-4.57,15.53-7.06,23.23-1.24,3.85-2.42,7.72-3.78,11.53s-3,7.53-4.51,11.27c-6.3,14.9-13.05,29.58-20.49,43.89A481.85,481.85,0,0,1,681.5,1019.61Z"/><path class="cls-2" d="M792.5,759.61a83.48,83.48,0,0,1,4.15-21.34c.56-1.74,1.17-3.49,1.83-5.2s1.36-3.43,2.17-5.1l1.17-2.53c.39-.84.85-1.65,1.27-2.48l1.3-2.48,1.41-2.42c.48-.8.93-1.64,1.47-2.4s1.12-1.5,1.73-2.21c1.19-1.44,2.51-2.78,3.76-4.17s2.56-2.73,3.89-4c.67-.65,1.31-1.33,2-2l2.1-1.86a105.11,105.11,0,0,1,18.31-12.89,124.46,124.46,0,0,1,20.53-8.71l5.35-1.49c.89-.24,1.78-.52,2.68-.72l2.71-.57,5.42-1.13,5.46-.81a182,182,0,0,1,43.77-.46l6,.61L929.3,681c-.33,1.11-.64,2-1,3s-.67,1.92-1,2.87q-1,2.85-2.18,5.64-2.27,5.59-4.85,11a224.3,224.3,0,0,1-11.44,21.11,212.69,212.69,0,0,1-29.53,37.87,201.25,201.25,0,0,1-18,16,224.78,224.78,0,0,1-19.94,13.63,144.73,144.73,0,0,1-22.57,8.53l-2.88.82c-1,.28-1.91.55-2.9.76l-5.82,1.33c-1.93.47-3.9.75-5.86,1.06s-3.91.62-5.86.91a203.39,203.39,0,0,0,40.73-22.25c.8-.51,1.65-.95,2.48-1.41s1.65-.94,2.46-1.43c1.62-1,3.17-2.1,4.76-3.14l2.37-1.59c.78-.55,1.53-1.13,2.3-1.69,1.52-1.14,3.07-2.24,4.57-3.41a191.34,191.34,0,0,0,17-15.2,202.7,202.7,0,0,0,28.12-36.07,214.3,214.3,0,0,0,10.93-20.17c1.65-3.45,3.18-6.95,4.62-10.48q1.08-2.64,2.05-5.32c.33-.89.64-1.78.94-2.66s.6-1.81.83-2.58l4.3,6.37a172,172,0,0,0-41.38.42l-5.09.75-5,1.05-2.51.53c-.83.19-1.64.45-2.47.67l-4.93,1.37a114.59,114.59,0,0,0-18.71,7.93,95.09,95.09,0,0,0-16.52,11.63l-1.9,1.67c-.62.57-1.2,1.18-1.81,1.77-1.2,1.19-2.41,2.36-3.51,3.64a42,42,0,0,0-3.21,3.91c-1,1.35-2.18,2.57-3.31,3.84a107.4,107.4,0,0,0-17.14,26A83.53,83.53,0,0,0,792.5,759.61Z"/><path class="cls-2" d="M747.5,816.61a83.53,83.53,0,0,0-4-9.89,107.4,107.4,0,0,0-17.14-26c-1.13-1.27-2.3-2.49-3.31-3.84a42,42,0,0,0-3.21-3.91c-1.1-1.28-2.31-2.46-3.51-3.64-.6-.59-1.18-1.2-1.81-1.77l-1.9-1.67a95.09,95.09,0,0,0-16.52-11.63,114.59,114.59,0,0,0-18.71-7.93L672.48,745c-.82-.22-1.64-.48-2.47-.67l-2.51-.53-5-1.05-5.09-.75a172,172,0,0,0-41.38-.42l4.3-6.37c.23.77.54,1.71.83,2.58s.61,1.78.94,2.66q1,2.66,2.05,5.32c1.43,3.53,3,7,4.62,10.48a214.3,214.3,0,0,0,10.93,20.17,202.7,202.7,0,0,0,28.12,36.07,191.34,191.34,0,0,0,17,15.2c1.5,1.17,3,2.27,4.57,3.41.77.56,1.52,1.14,2.3,1.69l2.37,1.59c1.59,1,3.14,2.15,4.76,3.14.81.5,1.64,1,2.46,1.43s1.67.9,2.48,1.41a203.39,203.39,0,0,0,40.73,22.25q-2.92-.43-5.86-.91c-2-.31-3.93-.6-5.86-1.06L727,859.31c-1-.2-1.94-.48-2.9-.76l-2.88-.82a144.73,144.73,0,0,1-22.57-8.53,224.78,224.78,0,0,1-19.94-13.63,201.25,201.25,0,0,1-18-16,212.69,212.69,0,0,1-29.53-37.87,224.3,224.3,0,0,1-11.44-21.11q-2.6-5.42-4.85-11-1.14-2.79-2.18-5.64c-.35-.95-.69-1.91-1-2.87s-.64-1.9-1-3L609,732.25l6-.61a182,182,0,0,1,43.77.46l5.46.81,5.42,1.13,2.71.57c.9.21,1.79.48,2.68.72l5.35,1.49a124.46,124.46,0,0,1,20.53,8.71,105.11,105.11,0,0,1,18.31,12.89l2.1,1.86c.69.63,1.34,1.31,2,2,1.33,1.32,2.67,2.62,3.89,4s2.56,2.73,3.76,4.17c.61.71,1.18,1.45,1.73,2.21s1,1.59,1.47,2.4l1.41,2.42,1.3,2.48c.42.83.87,1.64,1.27,2.48l1.17,2.53c.81,1.66,1.45,3.4,2.17,5.1s1.27,3.46,1.83,5.2A83.48,83.48,0,0,1,747.5,816.61Z"/><path class="cls-3" d="M728.38,622.88c11.2-7.27,35,10.61,53.21,39.94s23.85,59,12.66,66.26-35-10.61-53.21-39.94S717.18,630.15,728.38,622.88Z"/><path class="cls-4" d="M728.38,622.88a12,12,0,0,1,8.62-1.41,30,30,0,0,1,8.42,3,75.49,75.49,0,0,1,14.64,10.33,132.24,132.24,0,0,1,12.68,12.79,165.07,165.07,0,0,1,11.15,14.26,134.06,134.06,0,0,1,17,32.38,69.09,69.09,0,0,1,3.91,18.6,40.47,40.47,0,0,1-.06,5.06,26.82,26.82,0,0,1-.87,5.28,19.54,19.54,0,0,1-2.33,5.41,15.45,15.45,0,0,1-4.55,4.71,15.07,15.07,0,0,1-6.21,2.23,19,19,0,0,1-6-.18,25.86,25.86,0,0,1-5.18-1.51,41.22,41.22,0,0,1-4.59-2.17,56.77,56.77,0,0,1-8-5.46,79.57,79.57,0,0,1-7-6.32,133.75,133.75,0,0,1-21.35-29.69A165,165,0,0,1,731,673.79c-1.14-2.79-2.21-5.6-3.17-8.45s-1.79-5.74-2.58-8.63A75.76,75.76,0,0,1,722.48,639a30.75,30.75,0,0,1,1-8.87A12.42,12.42,0,0,1,728.38,622.88Zm0,0a12.37,12.37,0,0,0-4.79,7.28,28.94,28.94,0,0,0-.75,8.83,64.49,64.49,0,0,0,3.7,17.32A129.4,129.4,0,0,0,743,687.52a160.14,160.14,0,0,0,10.83,13.78A127.28,127.28,0,0,0,766,713.55a70.42,70.42,0,0,0,13.56,9.56,25.16,25.16,0,0,0,6.92,2.44,7.07,7.07,0,0,0,5-.67,7.49,7.49,0,0,0,2.79-4.41,25.46,25.46,0,0,0,.84-7.36,70.21,70.21,0,0,0-2.52-16.43c-.74-2.75-1.53-5.52-2.45-8.26s-1.95-5.45-3-8.14a159.31,159.31,0,0,0-7.47-15.86,129.44,129.44,0,0,0-20.54-28.67,64.29,64.29,0,0,0-13.87-11,28.18,28.18,0,0,0-8.27-3.17A11.93,11.93,0,0,0,728.38,622.88Z"/><path class="cls-3" d="M738,613.21c8.9-10.07,36.62.51,61.91,23.64s38.57,50,29.66,60.12-36.62-.51-61.91-23.64S729.06,623.28,738,613.21Z"/><path class="cls-4" d="M738,613.21a12.12,12.12,0,0,1,7.87-3.72,29.45,29.45,0,0,1,8.87.48,73.55,73.55,0,0,1,16.86,5.84,129.28,129.28,0,0,1,15.65,8.78,162,162,0,0,1,14.56,10.63,131.44,131.44,0,0,1,25,26.5,67.64,67.64,0,0,1,8.69,16.85,39.3,39.3,0,0,1,1.27,4.88,26.32,26.32,0,0,1,.53,5.32,19.41,19.41,0,0,1-.84,5.81,15.65,15.65,0,0,1-3.12,5.7,15.3,15.3,0,0,1-5.32,3.8,19,19,0,0,1-5.74,1.48,25.45,25.45,0,0,1-5.38,0,39.88,39.88,0,0,1-5-.8,55.19,55.19,0,0,1-9.17-3,77.29,77.29,0,0,1-8.4-4.14A131.11,131.11,0,0,1,765.71,675a161.82,161.82,0,0,1-11.83-13.61c-1.84-2.37-3.62-4.78-5.31-7.25s-3.25-5-4.77-7.59a73.9,73.9,0,0,1-7.31-16.28,30.09,30.09,0,0,1-1.33-8.79A12.49,12.49,0,0,1,738,613.21Zm0,0a12.44,12.44,0,0,0-2.71,8.25,21.27,21.27,0,0,0,.45,4.4,34.57,34.57,0,0,0,1.12,4.28A63,63,0,0,0,745,645.79a126.77,126.77,0,0,0,24.15,25.49,157.07,157.07,0,0,0,14.11,10.26,124.33,124.33,0,0,0,15,8.39,68.47,68.47,0,0,0,15.59,5.39,24.63,24.63,0,0,0,7.28.41,7.21,7.21,0,0,0,4.69-2.06,7.54,7.54,0,0,0,1.55-5,24.8,24.8,0,0,0-1.11-7.26,68.37,68.37,0,0,0-6.75-15.08c-1.44-2.44-2.93-4.89-4.54-7.26s-3.33-4.7-5.1-7a156.11,156.11,0,0,0-11.43-13.19A126.79,126.79,0,0,0,770.94,617a62.77,62.77,0,0,0-16.31-6.71,27.7,27.7,0,0,0-8.79-.73A12.08,12.08,0,0,0,738,613.21Z"/><path class="cls-3" d="M750.65,589.9c-6.46,11.82,12.46,35,42.25,51.78s59.19,20.79,65.65,9-12.46-35-42.25-51.78S757.11,578.08,750.65,589.9Z"/><path class="cls-4" d="M750.65,589.9a12.43,12.43,0,0,0-.82,8.63,21.06,21.06,0,0,0,1.41,4.19,34.27,34.27,0,0,0,2,3.92A62.53,62.53,0,0,0,764.7,620a126,126,0,0,0,29.23,19.36A154.48,154.48,0,0,0,810,646.19a121.61,121.61,0,0,0,16.51,4.74,67.45,67.45,0,0,0,16.38,1.68,24,24,0,0,0,7.17-1.27,7.24,7.24,0,0,0,4.11-3.08,7.58,7.58,0,0,0,.41-5.2,25,25,0,0,0-2.69-6.81,68.17,68.17,0,0,0-9.95-13.14c-1.95-2.05-4-4.08-6.06-6s-4.29-3.83-6.53-5.65a157.11,157.11,0,0,0-14.09-10.25,126,126,0,0,0-31.66-15.05,62.31,62.31,0,0,0-17.38-2.81,27.63,27.63,0,0,0-8.71,1.29A12.15,12.15,0,0,0,750.65,589.9Zm0,0a12.2,12.2,0,0,1,6.82-5.39,29.32,29.32,0,0,1,8.74-1.56,73,73,0,0,1,17.72,1.83,127.79,127.79,0,0,1,17.21,5,160.19,160.19,0,0,1,16.58,7A130.29,130.29,0,0,1,848,616.94a78,78,0,0,1,6.53,6.7,54.89,54.89,0,0,1,5.69,7.77,39,39,0,0,1,2.32,4.48c.37.77.65,1.62,1,2.44a25.72,25.72,0,0,1,.72,2.64,19.34,19.34,0,0,1,.46,5.85,14.7,14.7,0,0,1-6.1,11.11,19,19,0,0,1-5.24,2.74,25.82,25.82,0,0,1-5.23,1.22,39.41,39.41,0,0,1-5,.36,66.9,66.9,0,0,1-18.72-3,130.66,130.66,0,0,1-32.9-15.54,162.06,162.06,0,0,1-14.59-10.56c-2.33-1.89-4.6-3.83-6.8-5.86s-4.3-4.15-6.36-6.31A73.27,73.27,0,0,1,753,606.81a29.85,29.85,0,0,1-3.25-8.26A12.48,12.48,0,0,1,750.65,589.9Z"/><path class="cls-3" d="M751.5,583.05c-1.94,13.36,23.85,28.14,57.62,33s62.72-2,64.66-15.37-23.85-28.14-57.62-33S753.44,569.69,751.5,583.05Z"/><path class="cls-4" d="M751.5,583.05a12.31,12.31,0,0,0,2.25,8.36,20.75,20.75,0,0,0,2.8,3.41,34.07,34.07,0,0,0,3.3,2.93,49.9,49.9,0,0,0,7.43,4.75,72.31,72.31,0,0,0,8,3.65,125.25,125.25,0,0,0,34.2,7.46,154.53,154.53,0,0,0,17.39.49A120.87,120.87,0,0,0,844,612.52a67,67,0,0,0,15.85-4.38,24.14,24.14,0,0,0,6.23-3.78,6.33,6.33,0,0,0,1.36-9.36,24.56,24.56,0,0,0-4.91-5.38,67.34,67.34,0,0,0-14-8.67,122.64,122.64,0,0,0-15.93-6.33,156.42,156.42,0,0,0-16.82-4.44,125.26,125.26,0,0,0-34.91-2.52,61.93,61.93,0,0,0-17.19,3.68,34.05,34.05,0,0,0-4,1.87,20.8,20.8,0,0,0-3.65,2.47A12.34,12.34,0,0,0,751.5,583.05Zm0,0A12.39,12.39,0,0,1,756,575.6a29.41,29.41,0,0,1,7.57-4.6,72.49,72.49,0,0,1,17.16-4.72,127.06,127.06,0,0,1,17.82-1.62,160.25,160.25,0,0,1,18,.53A129.58,129.58,0,0,1,852,573a76.45,76.45,0,0,1,8.5,3.89,54.28,54.28,0,0,1,8.1,5.21,38.84,38.84,0,0,1,3.77,3.36c.62.59,1.19,1.28,1.77,1.94a25,25,0,0,1,1.61,2.21,19.13,19.13,0,0,1,2.49,5.33,14.75,14.75,0,0,1-1.82,12.51,19.15,19.15,0,0,1-3.9,4.4,25.85,25.85,0,0,1-4.42,3,38.81,38.81,0,0,1-4.56,2.15,66.53,66.53,0,0,1-18.49,4,129.92,129.92,0,0,1-36.25-2.53,161.33,161.33,0,0,1-17.4-4.55,127.62,127.62,0,0,1-16.64-6.58A72.44,72.44,0,0,1,759.62,598a29.4,29.4,0,0,1-6-6.56A12.36,12.36,0,0,1,751.5,583.05Z"/><path class="cls-3" d="M751.19,574.3c2.7,13.19,32,17.94,65.4,10.6s58.33-24,55.63-37.17-32-17.94-65.4-10.6S748.49,561.11,751.19,574.3Z"/><path class="cls-4" d="M751.19,574.3a12.13,12.13,0,0,0,5,7.08,27.63,27.63,0,0,0,8,3.78,62.45,62.45,0,0,0,17.45,2.39,126.22,126.22,0,0,0,34.7-5.13,155.46,155.46,0,0,0,16.48-5.68c2.68-1.09,5.32-2.24,7.9-3.49s5.09-2.62,7.56-4a67.93,67.93,0,0,0,13.37-9.67,24.63,24.63,0,0,0,4.57-5.73,7.54,7.54,0,0,0,1.14-5.1,7.26,7.26,0,0,0-3-4.14,24.55,24.55,0,0,0-6.49-3.3,68.05,68.05,0,0,0-16.17-3.16,123.71,123.71,0,0,0-17.18-.28,156.57,156.57,0,0,0-17.34,1.79,126.22,126.22,0,0,0-33.63,10,62.69,62.69,0,0,0-14.85,9.48,34.36,34.36,0,0,0-3.11,3.15,21.14,21.14,0,0,0-2.58,3.59A12.44,12.44,0,0,0,751.19,574.3Zm0,0a12.48,12.48,0,0,1,1.68-8.54,29.9,29.9,0,0,1,5.53-6.95,73.46,73.46,0,0,1,14.45-10.44c2.6-1.46,5.23-2.88,7.92-4.18s5.44-2.49,8.22-3.61a161.18,161.18,0,0,1,17-5.84,130.54,130.54,0,0,1,36-5.25,76.9,76.9,0,0,1,9.34.63,54.83,54.83,0,0,1,9.44,2,39.59,39.59,0,0,1,4.73,1.82,25.39,25.39,0,0,1,4.65,2.7,19,19,0,0,1,4.22,4.15,15.37,15.37,0,0,1,2.7,5.94,15.68,15.68,0,0,1-.13,6.48,19.36,19.36,0,0,1-2.16,5.46A26.19,26.19,0,0,1,871.7,563a39.09,39.09,0,0,1-3.53,3.6,67.29,67.29,0,0,1-15.93,10.24,130.88,130.88,0,0,1-34.87,10.41,161.52,161.52,0,0,1-17.91,1.89,128.66,128.66,0,0,1-17.92-.26A73.13,73.13,0,0,1,764,585.5a29.37,29.37,0,0,1-7.91-4A12.18,12.18,0,0,1,751.19,574.3Z"/><path class="cls-3" d="M743.52,564.75c6.35,11.79,35.78,7.65,65.73-9.27s49.09-40.18,42.74-52-35.78-7.65-65.73,9.27S737.17,553,743.52,564.75Z"/><path class="cls-4" d="M743.52,564.75a12,12,0,0,0,6.88,5.3,27.93,27.93,0,0,0,8.75,1.23,63.59,63.59,0,0,0,17.43-2.93,128.2,128.2,0,0,0,31.74-15.2,157.77,157.77,0,0,0,14.14-10.3c2.25-1.83,4.45-3.71,6.57-5.67s4.13-4,6.09-6.06a69.38,69.38,0,0,0,10-13.18,25.18,25.18,0,0,0,2.76-6.84,7.53,7.53,0,0,0-.35-5.22,7.12,7.12,0,0,0-4.1-3,24.89,24.89,0,0,0-7.21-1.21,69.51,69.51,0,0,0-16.44,1.81,125.9,125.9,0,0,0-16.55,4.84,158.6,158.6,0,0,0-16.09,6.85,128.17,128.17,0,0,0-29.35,19.43A63.83,63.83,0,0,0,746.34,548a28.68,28.68,0,0,0-3.54,8.1A12.41,12.41,0,0,0,743.52,564.75Zm0,0a12.46,12.46,0,0,1-.82-8.69,30.46,30.46,0,0,1,3.33-8.26,74.91,74.91,0,0,1,10.85-14.21c2.07-2.16,4.18-4.29,6.38-6.33s4.49-4,6.82-5.88a163.51,163.51,0,0,1,14.62-10.62,132.51,132.51,0,0,1,33-15.7,78.6,78.6,0,0,1,9.13-2.18,56.05,56.05,0,0,1,9.63-.91,40.62,40.62,0,0,1,5.07.32,25.65,25.65,0,0,1,5.26,1.19,19,19,0,0,1,5.29,2.72,15.17,15.17,0,0,1,4.35,4.93,15.55,15.55,0,0,1,1.73,6.29,19.5,19.5,0,0,1-.53,5.86,26.59,26.59,0,0,1-1.75,5.06,39.88,39.88,0,0,1-2.36,4.47,68.43,68.43,0,0,1-12.32,14.44,132.84,132.84,0,0,1-30.38,20.22,163.55,163.55,0,0,1-16.61,7.11,130.85,130.85,0,0,1-17.25,5.08,74.59,74.59,0,0,1-17.77,2,29.7,29.7,0,0,1-8.78-1.49A12,12,0,0,1,743.52,564.75Z"/><path class="cls-3" d="M734.17,555.85c9.09,9.74,36.57-1.88,61.39-26s37.57-51.5,28.48-61.24-36.57,1.88-61.39,26S725.08,546.11,734.17,555.85Z"/><path class="cls-4" d="M734.17,555.85a11.9,11.9,0,0,0,8,3.34,28.32,28.32,0,0,0,8.8-1.1,64.71,64.71,0,0,0,16.14-7.35,130.25,130.25,0,0,0,26.91-22.87,160.33,160.33,0,0,0,11.12-13.59c1.72-2.35,3.38-4.73,4.95-7.16s3-4.93,4.39-7.42A70.73,70.73,0,0,0,821,484.36a25.62,25.62,0,0,0,1-7.35,7.45,7.45,0,0,0-1.62-5,5.26,5.26,0,0,0-1.87-1.23,9.16,9.16,0,0,0-2.86-.62,25.31,25.31,0,0,0-7.32.72,71,71,0,0,0-15.49,6,128.2,128.2,0,0,0-14.81,9,161.21,161.21,0,0,0-13.87,10.76,130.2,130.2,0,0,0-23.58,26.29,64.89,64.89,0,0,0-7.83,15.91,29.08,29.08,0,0,0-1.44,8.76A12.33,12.33,0,0,0,734.17,555.85Zm0,0a12.37,12.37,0,0,1-3-8.24,30.91,30.91,0,0,1,1.19-8.86,76.28,76.28,0,0,1,7-16.52c1.47-2.62,3-5.22,4.61-7.75s3.36-5,5.14-7.43a166.08,166.08,0,0,1,11.5-14,134.55,134.55,0,0,1,27.95-23.65,80.15,80.15,0,0,1,8.29-4.46,57.11,57.11,0,0,1,9.08-3.38,41.38,41.38,0,0,1,5-1,26,26,0,0,1,5.4-.23,19.07,19.07,0,0,1,5.84,1.25,15,15,0,0,1,5.51,3.67,15.39,15.39,0,0,1,3.27,5.7,19.56,19.56,0,0,1,.93,5.83,27,27,0,0,1-.45,5.34,40.86,40.86,0,0,1-1.18,4.92,69.5,69.5,0,0,1-8.35,17.1,134.87,134.87,0,0,1-24.37,27.31,166.17,166.17,0,0,1-14.3,11.14,133.14,133.14,0,0,1-15.42,9.36,76,76,0,0,1-16.72,6.51,30.12,30.12,0,0,1-8.9.85A12,12,0,0,1,734.17,555.85Z"/><path class="cls-3" d="M726,547c11.08,7.31,35.2-10.49,53.89-39.76s24.86-58.91,13.78-66.22-35.2,10.49-53.89,39.76S714.94,539.73,726,547Z"/><path class="cls-4" d="M726,547a11.89,11.89,0,0,0,8.63,1.33,28.69,28.69,0,0,0,8.31-3.16,65.57,65.57,0,0,0,14-10.95,131.91,131.91,0,0,0,21-28.54,162.55,162.55,0,0,0,7.74-15.82,128.44,128.44,0,0,0,5.79-16.37,71.74,71.74,0,0,0,2.84-16.46,25.89,25.89,0,0,0-.69-7.41,7.34,7.34,0,0,0-2.69-4.43,5.17,5.17,0,0,0-2.1-.75,9.34,9.34,0,0,0-2.94.08,25.73,25.73,0,0,0-7,2.44,72.07,72.07,0,0,0-13.7,9.51,130.09,130.09,0,0,0-12.38,12.17,163.77,163.77,0,0,0-11.05,13.7,131.87,131.87,0,0,0-17,31.07,65.69,65.69,0,0,0-4,17.32,29.33,29.33,0,0,0,.58,8.88A12.21,12.21,0,0,0,726,547Zm0,0a12.26,12.26,0,0,1-4.78-7.36,31.18,31.18,0,0,1-.84-8.92A77.3,77.3,0,0,1,723.47,513a134.71,134.71,0,0,1,6.05-17,168.28,168.28,0,0,1,8-16.31,136.21,136.21,0,0,1,21.79-29.53,81.05,81.05,0,0,1,7-6.28,57.81,57.81,0,0,1,8-5.42,41.74,41.74,0,0,1,4.61-2.16,26.33,26.33,0,0,1,5.19-1.5,19.25,19.25,0,0,1,6-.18,14.93,14.93,0,0,1,6.25,2.27,15.23,15.23,0,0,1,4.53,4.81,19.54,19.54,0,0,1,2.24,5.49,34.24,34.24,0,0,1,.72,10.39,70.3,70.3,0,0,1-4.27,18.58,136.53,136.53,0,0,1-17.52,32.23,168.7,168.7,0,0,1-11.38,14.16,135,135,0,0,1-12.87,12.7,77.13,77.13,0,0,1-14.77,10.26,30.53,30.53,0,0,1-8.46,2.94A11.94,11.94,0,0,1,726,547Z"/><path class="cls-3" d="M722.3,547.46c-13-2.52-18.14-32.29-11.52-66.48s22.51-59.87,35.5-57.34,18.14,32.29,11.52,66.48S735.28,550,722.3,547.46Z"/><path class="cls-4" d="M722.3,547.46a12.06,12.06,0,0,1-7.19-5,31.22,31.22,0,0,1-4.06-8,78.21,78.21,0,0,1-3.61-17.65,136.61,136.61,0,0,1-.59-18.1,171.71,171.71,0,0,1,1.48-18.14A138,138,0,0,1,717.76,445a71,71,0,0,1,9.67-16.47,34.22,34.22,0,0,1,7.7-7.07,19.46,19.46,0,0,1,5.45-2.43,14.25,14.25,0,0,1,12.72,2.47,19.48,19.48,0,0,1,4.14,4.29,26.72,26.72,0,0,1,2.68,4.68,42.59,42.59,0,0,1,1.83,4.75A58.58,58.58,0,0,1,764,444.7a81,81,0,0,1,.76,9.41,137.56,137.56,0,0,1-4.51,36.48,170.37,170.37,0,0,1-5.4,17.38,135.89,135.89,0,0,1-7.31,16.58,78.2,78.2,0,0,1-9.94,15,31.16,31.16,0,0,1-6.76,5.91A12,12,0,0,1,722.3,547.46Zm0,0a12,12,0,0,0,8.5-2.06,29.32,29.32,0,0,0,6.54-6.06,66.4,66.4,0,0,0,9-15.39,133.29,133.29,0,0,0,9-34.32,166.76,166.76,0,0,0,1.4-17.58,131.68,131.68,0,0,0-.6-17.39,73.13,73.13,0,0,0-3.36-16.39,26.43,26.43,0,0,0-3.35-6.64,9.58,9.58,0,0,0-2.07-2.13,5.18,5.18,0,0,0-2-.94,7.12,7.12,0,0,0-5,1.31,25.87,25.87,0,0,0-5.6,4.9,72.65,72.65,0,0,0-9.25,13.95,129.63,129.63,0,0,0-7,15.92,164.6,164.6,0,0,0-5.26,16.84,133.26,133.26,0,0,0-4.42,35.21,66.39,66.39,0,0,0,2.58,17.63,29.32,29.32,0,0,0,3.8,8.06A12,12,0,0,0,722.3,547.46Z"/><path class="cls-3" d="M710.39,548.07c-13.22.63-25-27.05-26.38-61.82s8.28-63.47,21.51-64.09,25,27.05,26.38,61.82S723.61,547.45,710.39,548.07Z"/><path class="cls-4" d="M710.39,548.07a12,12,0,0,1-8.17-3.2,30.89,30.89,0,0,1-5.79-6.85,77.84,77.84,0,0,1-7.55-16.35,136.08,136.08,0,0,1-4.69-17.49,170.43,170.43,0,0,1-2.67-18,137.48,137.48,0,0,1,1.12-36.71,70.79,70.79,0,0,1,5.67-18.23,34.31,34.31,0,0,1,5.87-8.63A19.51,19.51,0,0,1,698.9,419a15.12,15.12,0,0,1,6.38-1.85,14.9,14.9,0,0,1,6.55,1.25,19.37,19.37,0,0,1,5,3.21,33.53,33.53,0,0,1,6.57,8.14,58.32,58.32,0,0,1,4.19,8.76,81.26,81.26,0,0,1,2.89,9A137.13,137.13,0,0,1,734.41,484a169.63,169.63,0,0,1-1.31,18.14A135.62,135.62,0,0,1,729.74,520a77.93,77.93,0,0,1-6.27,16.88,31.26,31.26,0,0,1-5.22,7.29A12.16,12.16,0,0,1,710.39,548.07Zm0,0a12.11,12.11,0,0,0,7.79-4,29.41,29.41,0,0,0,5-7.39,66.18,66.18,0,0,0,5.24-17,132.81,132.81,0,0,0,1-35.45,165.46,165.46,0,0,0-2.62-17.43A131.15,131.15,0,0,0,722.23,450a72.76,72.76,0,0,0-7-15.17,26.09,26.09,0,0,0-4.78-5.67,9.47,9.47,0,0,0-2.5-1.58,5.14,5.14,0,0,0-2.19-.43,7.23,7.23,0,0,0-4.54,2.45,26,26,0,0,0-4.33,6.06A72.37,72.37,0,0,0,691,451.33a129.32,129.32,0,0,0-3.25,17.09,163.83,163.83,0,0,0-1.3,17.58,132.83,132.83,0,0,0,3.69,35.27,66.11,66.11,0,0,0,6.54,16.56,29,29,0,0,0,5.56,7A11.92,11.92,0,0,0,710.39,548.07Z"/><path class="cls-3" d="M697.55,547.9c-12.66,4-31-19.64-41-52.86s-7.77-63.42,4.88-67.45,31,19.64,41,52.86S710.21,543.88,697.55,547.9Z"/><path class="cls-4" d="M697.55,547.9a11.94,11.94,0,0,1-8.7-1,30.4,30.4,0,0,1-7.34-5.13,76.82,76.82,0,0,1-11.41-13.89,134.5,134.5,0,0,1-8.9-15.72,167.94,167.94,0,0,1-7.06-16.72,136.08,136.08,0,0,1-8-35.77,70.09,70.09,0,0,1,1-19,34.18,34.18,0,0,1,3.55-9.79,19.55,19.55,0,0,1,3.65-4.66,15.27,15.27,0,0,1,5.66-3.39,15,15,0,0,1,6.63-.49,19.19,19.19,0,0,1,5.7,1.79,26.23,26.23,0,0,1,4.59,2.85,41.61,41.61,0,0,1,3.85,3.33,57.6,57.6,0,0,1,6.27,7.41,80.87,80.87,0,0,1,5.05,8A135.75,135.75,0,0,1,704.93,480a167.65,167.65,0,0,1,3.23,17.87,134.26,134.26,0,0,1,1.15,18,77,77,0,0,1-1.9,17.87,31.12,31.12,0,0,1-3.25,8.34A12.29,12.29,0,0,1,697.55,547.9Zm0,0a12.25,12.25,0,0,0,6.52-5.82,29.28,29.28,0,0,0,3-8.37,65.49,65.49,0,0,0,.87-17.75,131.41,131.41,0,0,0-7.82-34.51,163,163,0,0,0-6.88-16.19,129.57,129.57,0,0,0-8.57-15.08,71.75,71.75,0,0,0-10.58-12.87,25.6,25.6,0,0,0-6-4.24,9.29,9.29,0,0,0-2.8-.87,5.19,5.19,0,0,0-2.23.15,7.37,7.37,0,0,0-3.81,3.53,25.82,25.82,0,0,0-2.7,6.93,71.48,71.48,0,0,0-1.78,16.59,128,128,0,0,0,1.08,17.32,161.92,161.92,0,0,0,3.11,17.32,131.46,131.46,0,0,0,12.36,33.16,65.33,65.33,0,0,0,10.49,14.34,28.58,28.58,0,0,0,7.14,5.3A11.89,11.89,0,0,0,697.55,547.9Z"/><path class="cls-3" d="M685.49,549.39c-11,7.6-35.32-9.56-54.34-38.33s-25.54-58.24-14.55-65.84,35.32,9.56,54.34,38.33S696.47,541.79,685.49,549.39Z"/><path class="cls-4" d="M685.49,549.39a12,12,0,0,1-8.57,1.66,29.92,29.92,0,0,1-8.5-2.7,75.32,75.32,0,0,1-14.93-9.89,132,132,0,0,1-13-12.41,164.78,164.78,0,0,1-11.56-13.92A133.83,133.83,0,0,1,611,480.26a69,69,0,0,1-4.44-18.48,40.35,40.35,0,0,1-.08-5.06,26.78,26.78,0,0,1,.72-5.31,19.53,19.53,0,0,1,2.17-5.48,15.47,15.47,0,0,1,4.41-4.84,15.09,15.09,0,0,1,6.14-2.41,19,19,0,0,1,6,0,25.81,25.81,0,0,1,5.22,1.35,41.12,41.12,0,0,1,4.66,2,56.64,56.64,0,0,1,8.15,5.22,79.41,79.41,0,0,1,7.14,6.11,133.51,133.51,0,0,1,22.21,29,164.73,164.73,0,0,1,8.21,16.13c1.22,2.75,2.37,5.53,3.42,8.35s2,5.68,2.82,8.55a75.6,75.6,0,0,1,3.24,17.62,30.7,30.7,0,0,1-.76,8.89A12.43,12.43,0,0,1,685.49,549.39Zm0,0a12.38,12.38,0,0,0,4.58-7.42,28.89,28.89,0,0,0,.5-8.84,64.37,64.37,0,0,0-4.19-17.2A129.16,129.16,0,0,0,669,485.23a159.84,159.84,0,0,0-11.22-13.46,127,127,0,0,0-12.54-11.88,70.25,70.25,0,0,0-13.83-9.15,25.1,25.1,0,0,0-7-2.23,7.07,7.07,0,0,0-5,.82,7.5,7.5,0,0,0-2.66,4.49,25.4,25.4,0,0,0-.63,7.37,70.06,70.06,0,0,0,3,16.34c.82,2.73,1.68,5.47,2.68,8.18s2.1,5.39,3.28,8A159,159,0,0,0,633,509.39a129.21,129.21,0,0,0,21.36,28A64.16,64.16,0,0,0,668.57,548a28.13,28.13,0,0,0,8.36,2.92A11.94,11.94,0,0,0,685.49,549.39Z"/><path class="cls-3" d="M679.26,555.47c-7.76,11-36.47,3.49-64.12-16.73s-43.76-45.52-36-56.5,36.47-3.49,64.12,16.73S687,544.49,679.26,555.47Z"/><path class="cls-4" d="M679.26,555.47a12.14,12.14,0,0,1-7.41,4.55,29.42,29.42,0,0,1-8.87.5,73.42,73.42,0,0,1-17.39-4,129.09,129.09,0,0,1-16.51-7,161.86,161.86,0,0,1-15.63-9A131.26,131.26,0,0,1,585.73,517a67.53,67.53,0,0,1-10.46-15.8,39.24,39.24,0,0,1-1.79-4.72,26.28,26.28,0,0,1-1.1-5.23,19.4,19.4,0,0,1,.21-5.87,15.66,15.66,0,0,1,2.48-6,15.32,15.32,0,0,1,4.87-4.36,19,19,0,0,1,5.54-2.1,25.43,25.43,0,0,1,5.35-.59,39.78,39.78,0,0,1,5.06.25,55.07,55.07,0,0,1,9.45,2,77.17,77.17,0,0,1,8.8,3.2A130.93,130.93,0,0,1,645,497.11a161.6,161.6,0,0,1,13.24,12.23c2.09,2.15,4.12,4.35,6.07,6.63s3.78,4.64,5.57,7a73.76,73.76,0,0,1,9,15.38,30,30,0,0,1,2.27,8.59A12.49,12.49,0,0,1,679.26,555.47Zm0,0a12.44,12.44,0,0,0,1.8-8.49,21.23,21.23,0,0,0-.92-4.32,34.51,34.51,0,0,0-1.58-4.13,62.93,62.93,0,0,0-9.78-14.67A126.59,126.59,0,0,0,642,501.17a156.9,156.9,0,0,0-15.15-8.65A124.13,124.13,0,0,0,611,485.82a68.34,68.34,0,0,0-16.08-3.65,24.6,24.6,0,0,0-7.28.39,7.22,7.22,0,0,0-4.44,2.56,7.54,7.54,0,0,0-1,5.13,24.75,24.75,0,0,0,1.89,7.1,68.23,68.23,0,0,0,8.35,14.25c1.7,2.27,3.44,4.54,5.31,6.72s3.82,4.31,5.83,6.39a155.92,155.92,0,0,0,12.8,11.86,126.61,126.61,0,0,0,29.68,18.73A62.67,62.67,0,0,0,663,560.17a27.68,27.68,0,0,0,8.81-.24A12.09,12.09,0,0,0,679.26,555.47Z"/><path class="cls-3" d="M665.83,577.15c6.79-11.63-11.45-35.37-40.74-53s-58.55-22.55-65.35-10.92,11.45,35.37,40.74,53S659,588.78,665.83,577.15Z"/><path class="cls-4" d="M665.83,577.15a12.43,12.43,0,0,0,1.06-8.61,21.09,21.09,0,0,0-1.29-4.23,34.31,34.31,0,0,0-1.93-4,62.63,62.63,0,0,0-11-13.74A126.11,126.11,0,0,0,624,526.38a154.58,154.58,0,0,0-15.85-7.26,121.75,121.75,0,0,0-16.36-5.24,67.55,67.55,0,0,0-16.33-2.17,24.06,24.06,0,0,0-7.21,1.06,7.23,7.23,0,0,0-4.2,3,7.58,7.58,0,0,0-.55,5.19,25.09,25.09,0,0,0,2.5,6.89,68.28,68.28,0,0,0,9.56,13.44c1.89,2.11,3.84,4.2,5.88,6.21s4.18,4,6.36,5.84A157.28,157.28,0,0,0,601.58,564a126.14,126.14,0,0,0,31.2,16,62.38,62.38,0,0,0,17.29,3.33,27.65,27.65,0,0,0,8.75-1A12.14,12.14,0,0,0,665.83,577.15Zm0,0a12.19,12.19,0,0,1-7,5.19,29.33,29.33,0,0,1-8.78,1.3,73.06,73.06,0,0,1-17.67-2.37,127.94,127.94,0,0,1-17.06-5.49A160.29,160.29,0,0,1,599,568.26a130.43,130.43,0,0,1-29.69-21,78.15,78.15,0,0,1-6.33-6.89,55,55,0,0,1-5.46-7.94,39.07,39.07,0,0,1-2.19-4.54c-.34-.78-.6-1.64-.89-2.47a25.71,25.71,0,0,1-.65-2.65,19.35,19.35,0,0,1-.3-5.86,14.69,14.69,0,0,1,6.42-10.93,19,19,0,0,1,5.32-2.58,25.84,25.84,0,0,1,5.27-1.06,39.5,39.5,0,0,1,5.06-.21,67,67,0,0,1,18.63,3.53,130.8,130.8,0,0,1,32.42,16.51,162.22,162.22,0,0,1,14.27,11c2.27,2,4.49,4,6.63,6.06s4.17,4.28,6.17,6.5A73.38,73.38,0,0,1,664,560.18a29.9,29.9,0,0,1,3,8.35A12.48,12.48,0,0,1,665.83,577.15Z"/><ellipse class="cls-3" cx="603.94" cy="573.34" rx="24.45" ry="61.77" transform="translate(-64.82 1069.55) rotate(-80.09)"/><path class="cls-4" d="M664.8,584a12.33,12.33,0,0,0-2-8.42,20.76,20.76,0,0,0-2.7-3.49,34.06,34.06,0,0,0-3.21-3,49.91,49.91,0,0,0-7.28-5,72.42,72.42,0,0,0-7.91-3.89,125.25,125.25,0,0,0-34-8.48,154.59,154.59,0,0,0-17.37-1,120.85,120.85,0,0,0-17.12,1.07,66.94,66.94,0,0,0-16,3.91,24.11,24.11,0,0,0-6.34,3.59,6.33,6.33,0,0,0-1.63,9.32,24.59,24.59,0,0,0,4.75,5.53,67.37,67.37,0,0,0,13.71,9.08A122.67,122.67,0,0,0,583.49,590a156.51,156.51,0,0,0,16.68,4.94A125.27,125.27,0,0,0,635,598.51a61.91,61.91,0,0,0,17.29-3.17,34.06,34.06,0,0,0,4-1.75,20.79,20.79,0,0,0,3.72-2.37A12.33,12.33,0,0,0,664.8,584Zm0,0a12.38,12.38,0,0,1-4.68,7.32,29.39,29.39,0,0,1-7.71,4.38,72.46,72.46,0,0,1-17.29,4.21A127,127,0,0,1,617.26,601a160.3,160.3,0,0,1-18-1.07A129.58,129.58,0,0,1,564.06,591a76.54,76.54,0,0,1-8.38-4.14,54.31,54.31,0,0,1-7.94-5.45,38.84,38.84,0,0,1-3.67-3.47c-.6-.61-1.15-1.32-1.71-2a25,25,0,0,1-1.55-2.26,19.14,19.14,0,0,1-2.33-5.4,14.75,14.75,0,0,1,2.18-12.45,19.14,19.14,0,0,1,4-4.29,25.84,25.84,0,0,1,4.51-2.88,38.8,38.8,0,0,1,4.63-2,66.51,66.51,0,0,1,18.6-3.48,129.93,129.93,0,0,1,36.15,3.61,161.45,161.45,0,0,1,17.25,5.07A127.64,127.64,0,0,1,642.27,559a72.46,72.46,0,0,1,14.84,9.82,29.41,29.41,0,0,1,5.77,6.73A12.37,12.37,0,0,1,664.8,584Z"/><path class="cls-3" d="M664.85,592.73c-2.32-13.27-31.45-18.88-65.06-12.54s-59,22.24-56.66,35.5,31.45,18.88,65.06,12.54S667.17,606,664.85,592.73Z"/><path class="cls-4" d="M664.85,592.73a12.14,12.14,0,0,0-4.79-7.22,27.61,27.61,0,0,0-7.84-4,62.36,62.36,0,0,0-17.37-2.91A126.08,126.08,0,0,0,600,582.68a155.29,155.29,0,0,0-16.64,5.19c-2.71,1-5.38,2.08-8,3.25s-5.17,2.46-7.67,3.78a67.81,67.81,0,0,0-13.64,9.27,24.58,24.58,0,0,0-4.73,5.6,7.53,7.53,0,0,0-1.28,5.06,7.27,7.27,0,0,0,2.91,4.23,24.54,24.54,0,0,0,6.39,3.5,67.94,67.94,0,0,0,16.06,3.65,123.54,123.54,0,0,0,17.16.79A156.45,156.45,0,0,0,608,625.72a126.07,126.07,0,0,0,33.9-9,62.59,62.59,0,0,0,15.12-9,34.27,34.27,0,0,0,3.19-3.05,21.11,21.11,0,0,0,2.68-3.51A12.43,12.43,0,0,0,664.85,592.73Zm0,0a12.48,12.48,0,0,1-1.92,8.49,29.85,29.85,0,0,1-5.73,6.78,73.34,73.34,0,0,1-14.75,10c-2.64,1.38-5.31,2.73-8,3.94s-5.51,2.33-8.32,3.37a161,161,0,0,1-17.2,5.34,130.4,130.4,0,0,1-36.15,4.17,76.8,76.8,0,0,1-9.32-.91,54.72,54.72,0,0,1-9.37-2.28,39.48,39.48,0,0,1-4.67-2,25.37,25.37,0,0,1-4.56-2.84,19,19,0,0,1-4.09-4.27,15.38,15.38,0,0,1-2.52-6,15.68,15.68,0,0,1,.32-6.48,19.34,19.34,0,0,1,2.32-5.39,26.15,26.15,0,0,1,3.24-4.26,39,39,0,0,1,3.64-3.5A67.2,67.2,0,0,1,564,587.17a130.74,130.74,0,0,1,35.15-9.37,161.4,161.4,0,0,1,18-1.36,128.5,128.5,0,0,1,17.9.79,73,73,0,0,1,17.38,3.94,29.35,29.35,0,0,1,7.78,4.27A12.19,12.19,0,0,1,664.85,592.73Z"/><path class="cls-3" d="M672.24,602.51c-6-12-35.54-8.71-66,7.31s-50.21,38.71-44.2,50.69,35.54,8.71,66-7.31S678.25,614.49,672.24,602.51Z"/><path class="cls-4" d="M672.24,602.51a12,12,0,0,0-6.72-5.5,27.89,27.89,0,0,0-8.71-1.49,63.45,63.45,0,0,0-17.5,2.41,128,128,0,0,0-32.16,14.26,157.51,157.51,0,0,0-14.43,9.88c-2.3,1.76-4.55,3.58-6.72,5.47s-4.24,3.88-6.26,5.88a69.22,69.22,0,0,0-10.42,12.88,25.12,25.12,0,0,0-3,6.76,7.53,7.53,0,0,0,.2,5.22,7.13,7.13,0,0,0,4,3.16,24.84,24.84,0,0,0,7.17,1.43,69.35,69.35,0,0,0,16.48-1.32,125.66,125.66,0,0,0,16.68-4.35,158.34,158.34,0,0,0,16.28-6.37,128,128,0,0,0,29.89-18.56,63.7,63.7,0,0,0,11.89-13.07,28.63,28.63,0,0,0,3.77-8A12.42,12.42,0,0,0,672.24,602.51Zm0,0a12.47,12.47,0,0,1,.57,8.71,30.41,30.41,0,0,1-3.56,8.16A74.76,74.76,0,0,1,658,633.27c-2.13,2.1-4.3,4.17-6.56,6.14s-4.6,3.85-7,5.67a163.24,163.24,0,0,1-14.92,10.18A132.29,132.29,0,0,1,596.13,670a78.39,78.39,0,0,1-9.19,1.9,55.91,55.91,0,0,1-9.65.62,40.49,40.49,0,0,1-5.05-.47,25.62,25.62,0,0,1-5.22-1.35,19,19,0,0,1-5.2-2.88,15.19,15.19,0,0,1-4.2-5.05,15.57,15.57,0,0,1-1.55-6.33,19.49,19.49,0,0,1,.7-5.84,26.56,26.56,0,0,1,1.89-5,39.81,39.81,0,0,1,2.49-4.4,68.31,68.31,0,0,1,12.73-14.08,132.61,132.61,0,0,1,30.95-19.32,163.27,163.27,0,0,1,16.81-6.62A130.6,130.6,0,0,1,639,596.6a74.43,74.43,0,0,1,17.82-1.43,29.66,29.66,0,0,1,8.73,1.76A12,12,0,0,1,672.24,602.51Z"/><path class="cls-3" d="M681.34,611.69c-8.8-10-36.6.79-62.09,24.13s-39,50.37-30.21,60.38,36.6-.79,62.09-24.13S690.14,621.7,681.34,611.69Z"/><path class="cls-4" d="M681.34,611.69a11.91,11.91,0,0,0-7.94-3.58,28.28,28.28,0,0,0-8.83.83,64.59,64.59,0,0,0-16.34,6.87,130,130,0,0,0-27.56,22.07,160.05,160.05,0,0,0-11.51,13.25c-1.79,2.3-3.52,4.63-5.15,7s-3.14,4.84-4.6,7.29a70.59,70.59,0,0,0-6.91,15.14,25.57,25.57,0,0,0-1.2,7.32,7.46,7.46,0,0,0,1.48,5,5.27,5.27,0,0,0,1.84,1.29,9.13,9.13,0,0,0,2.84.71,25.27,25.27,0,0,0,7.33-.5,70.81,70.81,0,0,0,15.65-5.56,128,128,0,0,0,15.06-8.51A160.92,160.92,0,0,0,649.68,670,130,130,0,0,0,674,644.39a64.79,64.79,0,0,0,8.28-15.68A29,29,0,0,0,684,620,12.34,12.34,0,0,0,681.34,611.69Zm0,0a12.39,12.39,0,0,1,2.72,8.32,30.87,30.87,0,0,1-1.44,8.82,76.14,76.14,0,0,1-7.46,16.31c-1.54,2.57-3.13,5.13-4.83,7.61s-3.5,4.9-5.35,7.27a165.78,165.78,0,0,1-11.9,13.67,134.32,134.32,0,0,1-28.61,22.82,80,80,0,0,1-8.41,4.21,57,57,0,0,1-9.18,3.11,41.36,41.36,0,0,1-5,.86,26,26,0,0,1-5.4.06,19,19,0,0,1-5.8-1.43,15,15,0,0,1-5.39-3.83,15.41,15.41,0,0,1-3.11-5.78,19.55,19.55,0,0,1-.77-5.85,26.91,26.91,0,0,1,.6-5.33,40.73,40.73,0,0,1,1.32-4.88,69.39,69.39,0,0,1,8.83-16.85,134.64,134.64,0,0,1,25.14-26.58,165.85,165.85,0,0,1,14.61-10.71,132.89,132.89,0,0,1,15.68-8.9,75.88,75.88,0,0,1,16.9-6,30.08,30.08,0,0,1,8.91-.59A12,12,0,0,1,681.34,611.69Z"/><path class="cls-3" d="M689.23,620.74c-10.86-7.63-35.48,9.44-55,38.14S607.72,717,618.58,724.67s35.48-9.44,55-38.14S700.09,628.37,689.23,620.74Z"/><path class="cls-4" d="M689.23,620.74a11.89,11.89,0,0,0-8.58-1.59,28.65,28.65,0,0,0-8.4,2.91,65.47,65.47,0,0,0-14.32,10.53,131.72,131.72,0,0,0-21.78,27.91A162.28,162.28,0,0,0,628,676.09a128.27,128.27,0,0,0-6.25,16.2,71.64,71.64,0,0,0-3.31,16.36,25.86,25.86,0,0,0,.48,7.42,7.35,7.35,0,0,0,2.57,4.51,5.17,5.17,0,0,0,2.08.81,9.32,9.32,0,0,0,2.94,0,25.67,25.67,0,0,0,7-2.23,71.94,71.94,0,0,0,14-9.1,129.9,129.9,0,0,0,12.72-11.81,163.45,163.45,0,0,0,11.44-13.37,131.68,131.68,0,0,0,17.87-30.56A65.61,65.61,0,0,0,694,637.14a29.31,29.31,0,0,0-.32-8.89A12.22,12.22,0,0,0,689.23,620.74Zm0,0a12.27,12.27,0,0,1,4.56,7.49,31.16,31.16,0,0,1,.59,8.94,77.19,77.19,0,0,1-3.58,17.62,134.52,134.52,0,0,1-6.54,16.85,168,168,0,0,1-8.47,16.07,136,136,0,0,1-22.62,28.88,81,81,0,0,1-7.21,6.07,57.72,57.72,0,0,1-8.2,5.18,41.69,41.69,0,0,1-4.67,2,26.29,26.29,0,0,1-5.23,1.35,19.22,19.22,0,0,1-6,0,14.93,14.93,0,0,1-6.18-2.45,15.25,15.25,0,0,1-4.39-4.94,19.55,19.55,0,0,1-2.08-5.55,34.22,34.22,0,0,1-.43-10.4,70.21,70.21,0,0,1,4.8-18.45A136.35,136.35,0,0,1,632,657.72a168.36,168.36,0,0,1,11.78-13.83A134.81,134.81,0,0,1,657,631.57a77,77,0,0,1,15.06-9.82,30.48,30.48,0,0,1,8.54-2.69A11.94,11.94,0,0,1,689.23,620.74Z"/><path class="cls-3" d="M691.53,623.72c12.9,2.91,17.21,32.82,9.61,66.81S676.93,749.72,664,746.81,646.82,714,654.42,680,678.63,620.81,691.53,623.72Z"/><path class="cls-4" d="M691.53,623.72a12.07,12.07,0,0,1,7,5.25,31.24,31.24,0,0,1,3.83,8.12,78.19,78.19,0,0,1,3.1,17.75,136.58,136.58,0,0,1,.07,18.11,171.59,171.59,0,0,1-2,18.09,137.92,137.92,0,0,1-10.43,35.24A71,71,0,0,1,683,742.47a34.2,34.2,0,0,1-7.9,6.84,19.46,19.46,0,0,1-5.52,2.27A14.25,14.25,0,0,1,657,748.74a19.49,19.49,0,0,1-4-4.41,26.73,26.73,0,0,1-2.55-4.75,42.59,42.59,0,0,1-1.69-4.8,58.56,58.56,0,0,1-1.8-9.54,80.94,80.94,0,0,1-.49-9.43A137.53,137.53,0,0,1,652,679.48a170.21,170.21,0,0,1,5.89-17.22,135.84,135.84,0,0,1,7.78-16.36A78.19,78.19,0,0,1,676,631.16a31.13,31.13,0,0,1,6.93-5.71A12,12,0,0,1,691.53,623.72Zm0,0a12,12,0,0,0-8.56,1.81,29.3,29.3,0,0,0-6.71,5.87,66.39,66.39,0,0,0-9.41,15.13,133.26,133.26,0,0,0-10,34,166.65,166.65,0,0,0-1.9,17.54,131.68,131.68,0,0,0,.1,17.4A73.12,73.12,0,0,0,658,732a26.46,26.46,0,0,0,3.16,6.74,7.19,7.19,0,0,0,4,3.2,7.1,7.1,0,0,0,5-1.17,25.84,25.84,0,0,0,5.73-4.74,72.64,72.64,0,0,0,9.64-13.68A129.6,129.6,0,0,0,693,706.64,164.43,164.43,0,0,0,698.72,690a133.23,133.23,0,0,0,5.42-35.07,66.39,66.39,0,0,0-2.08-17.7,29.34,29.34,0,0,0-3.57-8.17A12,12,0,0,0,691.53,623.72Z"/><path class="cls-3" d="M703.45,623.46c13.23-.23,24.25,27.79,24.6,62.59S718,749.26,704.72,749.49s-24.25-27.79-24.6-62.59S690.22,623.7,703.45,623.46Z"/><path class="cls-4" d="M703.45,623.46a12,12,0,0,1,8.07,3.44,30.94,30.94,0,0,1,5.59,7,77.92,77.92,0,0,1,7.07,16.57,136.17,136.17,0,0,1,4.19,17.62,170.6,170.6,0,0,1,2.16,18.06,137.58,137.58,0,0,1-2.16,36.67,70.84,70.84,0,0,1-6.19,18.06,34.31,34.31,0,0,1-6.11,8.46,19.5,19.5,0,0,1-4.83,3.48,15.11,15.11,0,0,1-6.43,1.66A14.9,14.9,0,0,1,698.3,753a19.39,19.39,0,0,1-4.95-3.36,33.58,33.58,0,0,1-6.33-8.33,58.39,58.39,0,0,1-3.93-8.88,81.21,81.21,0,0,1-2.63-9.06,137.22,137.22,0,0,1-2.85-36.63,169.81,169.81,0,0,1,1.83-18.1A135.7,135.7,0,0,1,683.31,651a78,78,0,0,1,6.75-16.7,31.26,31.26,0,0,1,5.43-7.14A12.14,12.14,0,0,1,703.45,623.46Zm0,0a12.09,12.09,0,0,0-7.9,3.76,29.41,29.41,0,0,0-5.19,7.25,66.24,66.24,0,0,0-5.72,16.87,132.92,132.92,0,0,0-2,35.41,165.7,165.7,0,0,0,2.13,17.5,131.27,131.27,0,0,0,4.05,16.91,72.85,72.85,0,0,0,6.57,15.37,26.15,26.15,0,0,0,4.62,5.81,9.49,9.49,0,0,0,2.45,1.65,5.14,5.14,0,0,0,2.18.5,7.22,7.22,0,0,0,4.61-2.31,26,26,0,0,0,4.5-5.93A72.44,72.44,0,0,0,720,720.74a129.42,129.42,0,0,0,3.74-17,164,164,0,0,0,1.8-17.54,132.93,132.93,0,0,0-2.68-35.37,66.18,66.18,0,0,0-6.06-16.75,29.07,29.07,0,0,0-5.35-7.12A11.93,11.93,0,0,0,703.45,623.46Z"/><path class="cls-3" d="M723,623.94c13-3.12,29.48,21.68,36.86,55.39s2.83,63.57-10.15,66.69-29.48-21.68-36.86-55.39S710,627.07,723,623.94Z"/><path class="cls-4" d="M723,623.94a12,12,0,0,1,8.59,1.55,30,30,0,0,1,7,5.59,75.5,75.5,0,0,1,10.36,14.62A132.24,132.24,0,0,1,756.56,662a165.08,165.08,0,0,1,5.77,17.16,134.06,134.06,0,0,1,5.21,36.19A69.09,69.09,0,0,1,765,734.18a40.44,40.44,0,0,1-1.74,4.75,26.82,26.82,0,0,1-2.58,4.69,19.54,19.54,0,0,1-4,4.33,15.46,15.46,0,0,1-5.86,2.93,15.07,15.07,0,0,1-6.6,0,19,19,0,0,1-5.56-2.16,25.86,25.86,0,0,1-4.38-3.15,41.22,41.22,0,0,1-3.61-3.58A56.77,56.77,0,0,1,725,734.2a79.58,79.58,0,0,1-4.45-8.28,133.75,133.75,0,0,1-10.24-35.11,165.06,165.06,0,0,1-1.84-18c-.15-3-.22-6-.18-9s.22-6,.45-9A75.75,75.75,0,0,1,712,637.18a30.75,30.75,0,0,1,3.91-8A12.42,12.42,0,0,1,723,623.94Zm0,0a12.37,12.37,0,0,0-6.94,5.27,28.94,28.94,0,0,0-3.65,8.07,64.49,64.49,0,0,0-2.28,17.56,129.39,129.39,0,0,0,5.11,34.9,160.14,160.14,0,0,0,5.62,16.61A127.28,127.28,0,0,0,728.22,722a70.42,70.42,0,0,0,9.59,13.53,25.16,25.16,0,0,0,5.71,4.61,7.06,7.06,0,0,0,5,1.05,7.49,7.49,0,0,0,4.1-3.23,25.46,25.46,0,0,0,3.24-6.66,70.21,70.21,0,0,0,3.1-16.33c.22-2.84.4-5.71.44-8.6s0-5.79-.16-8.69a159.33,159.33,0,0,0-1.76-17.45,129.44,129.44,0,0,0-9.81-33.88,64.29,64.29,0,0,0-9.41-15,28.18,28.18,0,0,0-6.74-5.75A11.93,11.93,0,0,0,723,623.94Z"/><circle class="cls-5" cx="706" cy="588.11" r="49.5"/></g><g id="Layer_3" data-name="Layer 3"><text class="cls-6" transform="translate(127.4 232.79) rotate(-12.24)">W</text><text class="cls-6" transform="translate(320.39 192.18) rotate(-8.46)">e</text><text class="cls-6" transform="matrix(0.99, -0.11, 0.11, 0.99, 409.5, 179.31)">l</text><text class="cls-6" transform="matrix(1, -0.07, 0.07, 1, 459.25, 173.62)">c</text><text class="cls-6" transform="translate(540.3 166.26) rotate(2.63)">o</text><text class="cls-6" transform="matrix(0.97, 0.23, -0.23, 0.97, 651.66, 168.43)">m</text><text class="cls-6" transform="translate(814.91 210.65) rotate(20.99)">e</text><text class="cls-6" transform="translate(899.19 243.6) rotate(22.49)"></text></g></g></svg>